HIERARCHY
ROOT Hips
{
	OFFSET -3.958830 18.904000 13.208200
	CHANNELS 6 Xposition Yposition Zposition Zrotation Yrotation Xrotation 
	JOINT LHipJoint
	{
		OFFSET 0.000000 0.000000 0.000000
		CHANNELS 3 Zrotation Yrotation Xrotation
		JOINT LeftUpLeg
		{
			OFFSET 1.800000 -1.400000 0.085000
			CHANNELS 3 Zrotation Yrotation Xrotation
			JOINT LeftLeg
			{
				OFFSET 2.215000 -6.000000 0.000000
				CHANNELS 3 Zrotation Yrotation Xrotation
				JOINT LeftFoot
				{
					OFFSET 2.500000 -6.900000 0.000000
					CHANNELS 3 Zrotation Yrotation Xrotation
					JOINT LeftToeBase
					{
						OFFSET 0.200000 -0.500000 1.950000
						CHANNELS 3 Zrotation Yrotation Xrotation
						End Site
						{
							OFFSET 0.000000 0.000000 0.000000
						}
					}
				}
			}
		}
	}
	JOINT RHipJoint
	{
		OFFSET 0.000000 0.000000 0.000000
		CHANNELS 3 Zrotation Yrotation Xrotation
		JOINT RightUpLeg
		{
			OFFSET -1.800000 -1.400000 0.085000
			CHANNELS 3 Zrotation Yrotation Xrotation
			JOINT RightLeg
			{
				OFFSET -2.215000 -6.000000 0.000000
				CHANNELS 3 Zrotation Yrotation Xrotation
				JOINT RightFoot
				{
					OFFSET -2.500000 -6.900000 0.000000
					CHANNELS 3 Zrotation Yrotation Xrotation
					JOINT RightToeBase
					{
						OFFSET -0.200000 -0.500000 1.950000
						CHANNELS 3 Zrotation Yrotation Xrotation
						End Site
						{
							OFFSET 0.000000 0.000000 0.000000
						}
					}
				}
			}
		}
	}
	JOINT LowerBack
	{
		OFFSET 0.000000 0.000000 0.000000
		CHANNELS 3 Zrotation Yrotation Xrotation
		JOINT Spine
		{
			OFFSET -0.087000 1.940000 -0.288900
			CHANNELS 3 Zrotation Yrotation Xrotation
			JOINT Spine1
			{
				OFFSET 0.000000 1.950000 0.060000
				CHANNELS 3 Zrotation Yrotation Xrotation
				JOINT Neck
				{
					OFFSET 0.000000 0.000000 0.000000
					CHANNELS 3 Zrotation Yrotation Xrotation
					JOINT Neck1
					{
						OFFSET 0.000000 1.600000 0.340000
						CHANNELS 3 Zrotation Yrotation Xrotation
						JOINT Head
						{
							OFFSET 0.000000 1.667000 -0.240000
							CHANNELS 3 Zrotation Yrotation Xrotation
							End Site
							{
								OFFSET 0.000000 0.000000 0.000000
							}
						}
					}
				}
				JOINT LeftShoulder
				{
					OFFSET 0.000000 0.000000 0.000000
					CHANNELS 3 Zrotation Yrotation Xrotation
					JOINT LeftArm
					{
						OFFSET 2.700000 1.550000 -0.730000
						CHANNELS 3 Zrotation Yrotation Xrotation
						JOINT LeftForeArm
						{
							OFFSET 5.450000 0.000000 0.000000
							CHANNELS 3 Zrotation Yrotation Xrotation
							JOINT LeftHand
							{
								OFFSET 3.450000 0.000000 0.000000
								CHANNELS 3 Zrotation Yrotation Xrotation
								JOINT LeftHandIndex1
								{
									OFFSET 0.750000 0.000000 0.000000
									CHANNELS 3 Zrotation Yrotation Xrotation
									End Site
									{
										OFFSET 0.000000 0.000000 0.000000
									}
								}
							}
						}
					}
				}
				JOINT RightShoulder
				{
					OFFSET 0.000000 0.000000 0.000000
					CHANNELS 3 Zrotation Yrotation Xrotation
					JOINT RightArm
					{
						OFFSET -2.700000 1.550000 -0.730000
						CHANNELS 3 Zrotation Yrotation Xrotation
						JOINT RightForeArm
						{
							OFFSET -5.450000 0.000000 0.000000
							CHANNELS 3 Zrotation Yrotation Xrotation
							JOINT RightHand
							{
								OFFSET -3.450000 0.000000 0.000000
								CHANNELS 3 Zrotation Yrotation Xrotation
								JOINT RightHandIndex1
								{
									OFFSET -0.750000 0.000000 0.000000
									CHANNELS 3 Zrotation Yrotation Xrotation
									End Site
									{
										OFFSET 0.000000 0.000000 0.000000
									}
								}
							}
						}
					}
				}
			}
		}
	}
}
MOTION
Frames: 13
Frame Time: 0.016667
-0.437370 16.935420 -2.718160 -5.964636 -17.392283 -5.920458 -15.318453 13.545448 3.416501 12.407641 1.163532 -23.487446 -11.130467 14.317611 38.340417 0.725934 7.769248 1.555156 1.008940 0.908020 1.028050 17.999104 -10.369573 3.397667 2.092902 0.912492 -2.586281 11.676400 -5.100201 7.980725 -1.060234 -3.333713 2.992003 0.181300 -0.670410 0.449450 -2.699050 -2.565284 -8.562062 11.123058 2.989962 39.717257 4.191298 6.882485 21.146374 5.272948 -5.188947 -21.255450 -9.594428 3.803550 54.453586 -9.454840 4.045480 -35.202170 -16.052257 -27.083468 14.448697 -47.835640 10.157633 -21.721151 -64.445218 -69.713346 30.127707 -2.571513 3.701697 0.795610 -0.544600 0.928110 0.134780 7.347243 41.589087 14.150006 37.502540 48.142709 -8.947324 45.243629 67.174729 20.895520 0.902014 -2.692518 0.428130 -0.091190 -0.565490 -0.124800 
-0.449650 16.922620 -2.720070 -6.197266 -18.058071 -5.813408 -15.364676 13.552960 3.475391 13.073852 1.452456 -24.066166 -11.448375 14.800816 38.872400 0.768194 7.977680 1.477948 1.018420 0.918090 1.029040 17.971557 -10.253940 3.383427 2.335122 0.940864 -2.396153 11.878120 -5.091043 7.925741 -1.067179 -3.340798 2.986502 0.185260 -0.675460 0.453780 -2.593643 -2.778218 -8.609523 10.829284 2.972687 39.876718 4.556181 6.756025 21.319669 5.488505 -5.765607 -21.485512 -10.820350 4.580198 54.286884 -9.699800 3.988050 -35.159130 -16.490029 -27.223652 14.247734 -48.520947 10.032213 -22.285532 -56.893206 -66.054405 23.121332 -2.544115 3.672401 0.790850 -0.548890 0.931550 0.139920 7.485735 42.285989 14.554483 36.495824 48.393349 -8.966473 47.963945 69.077055 23.185319 0.653736 -2.964781 0.437510 -0.095570 -0.570270 -0.118410 
-0.461100 16.909840 -2.721720 -6.430003 -18.658775 -5.689559 -15.406338 13.552679 3.532733 13.697160 1.735232 -24.627757 -11.716356 15.252618 39.378643 0.811980 8.170173 1.407519 1.027560 0.928610 1.030750 17.948230 -10.148903 3.370532 2.569432 0.969118 -2.234125 12.074126 -5.082254 7.880162 -1.074423 -3.347676 2.979851 0.187760 -0.680410 0.459600 -2.501711 -2.960493 -8.653680 10.604158 2.937811 39.999121 4.876339 6.622961 21.497002 5.691398 -6.286639 -21.692816 -11.937301 5.270526 54.035838 -9.935750 3.937470 -35.127640 -16.909908 -27.381615 14.091621 -49.101145 9.823742 -22.509788 -51.345168 -62.529555 18.035589 -2.539872 3.637846 0.783480 -0.552880 0.935670 0.144720 7.627801 42.947035 14.885249 35.651193 48.578353 -8.879709 50.943980 71.003075 25.630791 0.367660 -3.308415 0.449450 -0.101800 -0.575830 -0.110500 
-0.472480 16.897000 -2.722640 -6.646157 -19.200029 -5.554586 -15.443480 13.545448 3.587695 14.271032 2.014090 -25.151581 -11.959302 15.681454 39.844049 0.850064 8.351598 1.342832 1.035090 0.936250 1.031400 17.928550 -10.055907 3.358468 2.783914 1.000515 -2.103091 12.261307 -5.077370 7.853371 -1.080103 -3.356484 2.974396 0.190150 -0.682630 0.464750 -2.421929 -3.111087 -8.694172 10.420637 2.904199 40.068297 5.159474 6.496806 21.688267 5.881549 -6.749446 -21.877950 -12.913454 5.877504 53.716147 -10.189450 3.907890 -35.083870 -17.305797 -27.567665 13.971830 -49.597417 9.575328 -22.510134 -47.147411 -59.149934 14.254467 -2.544408 3.605153 0.777470 -0.554410 0.937260 0.149530 7.768416 43.590971 15.148053 34.946032 48.688141 -8.707864 54.175459 72.906257 28.161481 0.022982 -3.737226 0.458050 -0.106200 -0.579730 -0.104450 
-0.483400 16.885350 -2.723320 -6.829012 -19.690144 -5.446276 -15.478193 13.542419 3.633812 14.763640 2.290289 -25.601602 -12.137342 16.062351 40.260461 0.883755 8.508620 1.286217 1.041570 0.944150 1.031580 17.909593 -9.972130 3.347975 2.971184 1.017264 -1.959163 12.421938 -5.069616 7.808819 -1.085411 -3.365175 2.968629 0.193200 -0.685780 0.468360 -2.345818 -3.251255 -8.728881 10.221714 2.892287 40.124904 5.439806 6.386356 21.888703 6.059897 -7.169652 -22.051222 -13.800792 6.423484 53.416692 -10.404380 3.885280 -35.072280 -17.689592 -27.791166 13.891559 -50.053094 9.295384 -22.375458 -43.893857 -55.932705 11.371556 -2.550317 3.576241 0.771720 -0.556520 0.939120 0.153130 7.922330 44.257932 15.341312 34.310500 48.684443 -8.442185 57.666333 74.755991 30.726590 -0.389877 -4.263945 0.465720 -0.110260 -0.583320 -0.098830 
-0.493670 16.875080 -2.723810 -7.014161 -20.128489 -5.337343 -15.509261 13.538304 3.674587 15.212639 2.555986 -26.010796 -12.264660 16.401128 40.641090 0.913470 8.647557 1.236097 1.047570 0.951030 1.032080 17.893337 -9.896079 3.339709 3.151635 1.034656 -1.824697 12.587874 -5.063836 7.764247 -1.091076 -3.373944 2.963428 0.195660 -0.689370 0.471170 -2.278910 -3.373899 -8.760381 10.067058 2.891977 40.170646 5.716880 6.299408 22.054185 6.227156 -7.530220 -22.195658 -14.564368 6.880356 53.150547 -10.590560 3.862190 -35.099310 -18.055180 -28.018930 13.838568 -50.480171 9.002686 -22.144420 -41.367738 -52.970810 9.182607 -2.556645 3.551556 0.767130 -0.559130 0.940900 0.156300 8.081495 44.892840 15.463839 33.812104 48.567532 -7.917998 61.450174 76.634673 33.314015 -0.864264 -4.876384 0.472570 -0.113870 -0.586530 -0.094430 
-0.503560 16.866390 -2.723900 -7.196121 -20.517605 -5.239195 -15.537773 13.537758 3.708464 15.616503 2.813988 -26.360252 -12.346490 16.693027 40.966977 0.938712 8.765902 1.193237 1.052920 0.956670 1.033750 17.878550 -9.826673 3.333036 3.334210 1.044676 -1.689135 12.726156 -5.058928 7.723521 -1.096479 -3.382170 2.959171 0.197010 -0.692830 0.474100 -2.217537 -3.487867 -8.790034 9.928147 2.920213 40.208888 6.015788 6.241293 22.212207 6.400210 -7.813901 -22.330260 -15.160245 7.246526 52.927438 -10.810520 3.856410 -35.125800 -18.410601 -28.270756 13.809953 -50.872788 8.713953 -21.863432 -39.469724 -50.247863 7.515697 -2.563617 3.529672 0.763340 -0.561070 0.942670 0.158650 8.230603 45.512121 15.577643 33.304454 48.312067 -6.998370 65.800968 78.856024 36.003817 -1.411571 -5.570616 0.478840 -0.117530 -0.589530 -0.091010 
-0.513320 16.859120 -2.723540 -7.368797 -20.875266 -5.151365 -15.559871 13.540230 3.733715 15.963933 3.063251 -26.645576 -12.368270 16.926251 41.233970 0.957651 8.859960 1.158818 1.056560 0.960740 1.034290 17.868189 -9.770087 3.329871 3.520802 1.042350 -1.558031 12.810972 -5.051558 7.683781 -1.101161 -3.388412 2.956446 0.198200 -0.695450 0.476460 -2.171281 -3.581517 -8.819656 9.832804 2.967194 40.250341 6.300446 6.213579 22.396561 6.576878 -8.040178 -22.487793 -15.641567 7.547424 52.706797 -11.024610 3.864220 -35.165820 -18.718193 -28.524371 13.760707 -51.202878 8.398669 -21.543619 -38.052628 -47.740113 6.223461 -2.571910 3.508900 0.760520 -0.562270 0.944140 0.160680 8.346054 46.061848 15.826963 32.672551 48.043441 -5.387377 70.861655 81.869113 38.692758 -1.932163 -6.199426 0.483350 -0.119930 -0.591420 -0.088420 
-0.523050 16.852930 -2.723140 -7.503955 -21.207836 -5.077294 -15.579570 13.548824 3.751404 16.234527 3.296351 -26.879104 -12.342386 17.111859 41.458583 0.973684 8.934469 1.132234 1.059320 0.962520 1.036050 17.858415 -9.722360 3.329225 3.688643 1.031023 -1.435342 12.858638 -5.040230 7.628118 -1.105307 -3.392075 2.955077 0.197570 -0.697220 0.479860 -2.128359 -3.667614 -8.851869 9.722938 3.039288 40.289859 6.525603 6.210975 22.632251 6.756502 -8.180627 -22.696468 -15.979007 7.774400 52.512461 -11.246160 3.888990 -35.165910 -18.954787 -28.743712 13.663892 -51.439180 8.066468 -21.203790 -37.041424 -45.475536 5.222982 -2.582183 3.489778 0.758150 -0.562560 0.945670 0.162370 8.367791 46.421157 16.325168 31.868998 48.056986 -2.715636 76.729668 86.114008 41.334433 -2.141756 -6.433383 0.487670 -0.122570 -0.593190 -0.086470 
-0.532300 16.847910 -2.722820 -7.629431 -21.498358 -5.011216 -15.600274 13.564501 3.762350 16.453677 3.508892 -27.087379 -12.250733 17.246438 41.668364 0.984528 8.993504 1.111215 1.060810 0.962100 1.037020 17.847002 -9.675505 3.328963 3.858575 1.014328 -1.317417 12.883840 -5.026966 7.560266 -1.108120 -3.393603 2.955644 0.195770 -0.697320 0.482720 -2.080939 -3.763604 -8.877293 9.618367 3.057272 40.331022 6.624555 6.164641 22.833750 6.892505 -8.268006 -22.874235 -16.256359 7.970725 52.336097 -11.430950 3.919790 -35.155420 -19.158401 -28.829408 13.527856 -51.600583 7.795840 -20.867996 -36.398820 -43.466669 4.454977 -2.595017 3.471220 0.757160 -0.562040 0.945880 0.163870 8.348738 46.469376 16.855040 31.192194 48.592346 0.536746 -98.147591 89.476493 -136.198363 -1.722084 -5.994056 0.490260 -0.124320 -0.593790 -0.085330 
-0.541290 16.843730 -2.722290 -7.749947 -21.770196 -4.946116 -15.620178 13.583510 3.767702 16.641325 3.705868 -27.256721 -12.141615 17.345056 41.828095 0.994330 9.035856 1.096092 1.062560 0.962650 1.038260 17.835724 -9.630670 3.328529 4.032890 0.993686 -1.206290 12.890566 -5.011879 7.497511 -1.110723 -3.393359 2.956255 0.194520 -0.698750 0.485100 -2.034559 -3.861952 -8.893357 9.525355 3.039589 40.362559 6.646140 6.101007 22.934917 6.978671 -8.321377 -22.980578 -16.488355 8.139490 52.206258 -11.601360 3.959690 -35.115260 -19.404785 -28.820920 13.399685 -51.683698 7.609907 -20.533599 -35.953740 -41.665795 3.837529 -2.607283 3.455927 0.755230 -0.561900 0.946620 0.165510 8.396629 46.354652 17.220926 30.804475 49.314291 3.318583 -94.996469 86.134395 -133.915405 -0.895915 -5.149488 0.493450 -0.127160 -0.595740 -0.084190 
-0.549380 16.840830 -2.721710 -7.875406 -22.020688 -4.896299 -15.636955 13.606942 3.767173 16.802380 3.895372 -27.379970 -12.003488 17.407839 41.952368 1.001931 9.063104 1.085587 1.064830 0.963960 1.039210 17.826163 -9.590128 3.330216 4.214123 0.965191 -1.085817 12.872039 -4.994110 7.430329 -1.113274 -3.392101 2.957022 0.193520 -0.701130 0.486850 -1.994667 -3.959219 -8.904627 9.494685 3.001095 40.437548 6.641251 6.055498 22.953792 7.048264 -8.399097 -23.057743 -16.798260 8.289411 52.088848 -11.711250 3.946100 -35.094810 -19.694468 -28.792273 13.292043 -51.708010 7.458808 -20.203575 -35.728290 -40.046778 3.347567 -2.617109 3.444364 0.753530 -0.563080 0.947580 0.167180 8.508941 46.252519 17.469562 30.556956 49.929881 5.383552 -93.362236 83.788090 -131.641614 0.050599 -4.151784 0.497020 -0.130530 -0.598230 -0.082610 
-0.557750 16.838770 -2.721160 -7.983901 -22.231993 -4.851113 -15.651162 13.628963 3.763246 16.930608 4.064331 -27.477905 -11.856504 17.440816 42.038790 1.006494 9.078003 1.078478 1.065890 0.965140 1.039410 17.818018 -9.557121 3.333169 4.396629 0.927690 -0.976106 12.818536 -4.973527 7.357191 -1.114919 -3.388675 2.957433 0.192720 -0.703090 0.488560 -1.960201 -4.041259 -8.914097 9.464494 2.986775 40.492312 6.669270 6.035847 22.944686 7.095336 -8.461707 -23.097193 -17.047405 8.400426 52.000801 -11.795940 3.930820 -35.074920 -19.937568 -28.763298 13.205329 -51.724138 7.302072 -19.885769 -35.627022 -38.617654 2.953534 -2.627267 3.435059 0.751320 -0.563850 0.948510 0.167630 8.624895 46.174412 17.626064 30.419001 50.368101 6.685416 -92.763766 82.314194 -129.568287 0.883295 -3.217857 0.500390 -0.133660 -0.599530 -0.080850 
